<mxfile host="app.diagrams.net" modified="2024-02-28T13:09:56.181Z" agent="Mozilla/5.0 (Windows NT 10.0; Win64; x64; rv:124.0) Gecko/20100101 Firefox/124.0" etag="wMVq7EPeid-A8msYpzre" version="23.1.7" type="device">
  <diagram name="Page-1" id="bdotkGNkKkEd3LMSpYtT">
    <mxGraphModel dx="2074" dy="1134" grid="1" gridSize="10" guides="1" tooltips="1" connect="1" arrows="1" fold="1" page="1" pageScale="1" pageWidth="850" pageHeight="1100" math="0" shadow="0">
      <root>
        <mxCell id="0" />
        <mxCell id="1" parent="0" />
      </root>
    </mxGraphModel>
  </diagram>
</mxfile>
